<?xml version="1.0" encoding="utf-8"?>
<!-- Svg Vector Icons : http://www.onlinewebfonts.com/icon -->
<!DOCTYPE svg PUBLIC "-//W3C//DTD SVG 1.1//EN" "http://www.w3.org/Graphics/SVG/1.1/DTD/svg11.dtd">
<svg version="1.1" xmlns="http://www.w3.org/2000/svg" xmlns:xlink="http://www.w3.org/1999/xlink" x="0px" y="0px" viewBox="0 0 1000 1000" enable-background="new 0 0 1000 1000" xml:space="preserve">
<metadata> Svg Vector Icons : http://www.onlinewebfonts.com/icon </metadata>
<g><path d="M989.5,161c-2.9-30.4-30.5-56.3-61.4-56.3H72c-32.4,0-61.2,28.6-61.7,60.9c-0.5,2-0.5,4.1,0,6.2v662c0,32.6,29,61.7,61.7,61.7h856c32.6,0,61.7-29,61.7-61.7V168.1C990.1,165.6,990.1,163.2,989.5,161z M72,140.9h856c11.8,0,21.2,7.1,24.3,17.7L500,525.4L47.1,161.5C49.1,149.5,59.1,140.9,72,140.9z M928,859.1H72c-14.5,0-25.4-10.9-25.4-25.4V207.6L500,568.9l453.4-364.8v629.5C953.4,848.2,942.5,859.1,928,859.1z"/></g>
</svg>